PathFileType	4	(X/Y/Z)	OpenSim_Sub10_EMGBaseline_Magnet.trc
DataRate	CameraRate	NumFrames	NumMarkers	Units	OrigDataRate	OrigDataStartFrame	OrigNumFrames
100	100	16	8	m	100	1026	8201
Frame#	Time	torso_imu_offset_imu	pelvis_imu_offset_imu	tibia_r_imu_offset_imu	femur_r_imu_offset_imu	tibia_l_imu_offset_imu	femur_l_imu_offset_imu	toes_r_imu_offset_imu	toes_l_imu_offset_imu
				X1	Y1	Z1	X2	Y2	Z2	X3	Y3	Z3	X4	Y4	Z4	X5	Y5	Z5	X6	Y6	Z6	X7	Y7	Z7	X8		Y8	Z8	

1026	10.25000000	-0.94970700	-0.06982400	0.10913100	-0.62060500	0.06201200	-0.72143600	-0.63623000	-0.65991200	-0.13842800	-0.66357400	-0.49951200	0.08276400	-0.64770500	0.48266600	0.15991200	-0.80786100	-0.01977500	0.27148400	-0.60864300	-0.38720700	-0.44751000	-0.73193400	-0.08593800	-0.38623000
1027	10.26000000	-0.95190400	-0.07202100	0.11352500	-0.62060500	0.06201200	-0.72607400	-0.62988300	-0.66406200	-0.14282200	-0.65722700	-0.50781200	0.07861300	-0.67114300	0.44287100	0.15307600	-0.80590800	-0.01538100	0.26904300	-0.60424800	-0.39331100	-0.44531200	-0.71118200	-0.10327100	-0.42431600
1028	10.27000000	-0.95190400	-0.06982400	0.11792000	-0.62060500	0.06005900	-0.72827100	-0.62109400	-0.67431600	-0.14013700	-0.65918000	-0.51196300	0.07885700	-0.69702100	0.40771500	0.13964800	-0.80175800	-0.00463900	0.27124000	-0.60595700	-0.40551800	-0.45336900	-0.69506800	-0.11840800	-0.45117200
1029	10.28000000	-0.94335900	-0.06787100	0.11572300	-0.62500000	0.06420900	-0.72607400	-0.61914100	-0.67431600	-0.14477500	-0.65258800	-0.51611300	0.07202100	-0.71606400	0.37475600	0.13916000	-0.80175800	-0.00659200	0.26684600	-0.60791000	-0.41162100	-0.45117200	-0.66772500	-0.12890600	-0.47802700
1030	10.29000000	-0.94555700	-0.07202100	0.11792000	-0.62060500	0.06201200	-0.72363300	-0.61254900	-0.68066400	-0.14233400	-0.65234400	-0.52441400	0.07226600	-0.72656200	0.35058600	0.14038100	-0.80419900	0.00195300	0.25756800	-0.61181600	-0.42187500	-0.45532200	-0.64892600	-0.15283200	-0.49365200
1031	10.30000000	-0.94970700	-0.06982400	0.11572300	-0.62085000	0.06616200	-0.71679700	-0.60620100	-0.68701200	-0.14648400	-0.64843800	-0.52026400	0.06762700	-0.73486300	0.32421900	0.13525400	-0.80664100	0.00854500	0.26220700	-0.62207000	-0.42822300	-0.45092800	-0.63305700	-0.15478500	-0.51391600
1032	10.31000000	-0.94775400	-0.06982400	0.12011700	-0.61645500	0.06835900	-0.73095700	-0.60400400	-0.68701200	-0.14648400	-0.64624000	-0.52417000	0.05859400	-0.74975600	0.30004900	0.12768600	-0.80712900	0.02368200	0.25512700	-0.62182600	-0.43432600	-0.45507800	-0.61718800	-0.16577100	-0.52514600
1033	10.32000000	-0.94775400	-0.06982400	0.12451200	-0.61450200	0.07055700	-0.71923800	-0.59521500	-0.69726600	-0.15283200	-0.64599600	-0.53051800	0.06811500	-0.75366200	0.28247100	0.12622100	-0.80297900	0.02807600	0.25512700	-0.62377900	-0.44262700	-0.45092800	-0.60107400	-0.17651400	-0.53613300
1034	10.33000000	-0.94751000	-0.07202100	0.12231400	-0.62304700	0.07251000	-0.71484400	-0.58691400	-0.69946300	-0.15283200	-0.63745100	-0.53662100	0.06152300	-0.75317400	0.26928700	0.12255900	-0.80053700	0.02368200	0.25732400	-0.62768600	-0.45288100	-0.45263700	-0.59423800	-0.17846700	-0.55419900
1035	10.34000000	-0.94335900	-0.07202100	0.12695300	-0.62133800	0.08081100	-0.71044900	-0.58032200	-0.70776400	-0.16137700	-0.63940400	-0.54077100	0.05712900	-0.75732400	0.25610400	0.12329100	-0.79834000	0.01953100	0.25756800	-0.63183600	-0.45288100	-0.44433600	-0.58520500	-0.18066400	-0.56543000
1036	10.35000000	-0.94555700	-0.06787100	0.12451200	-0.62768600	0.07861300	-0.71044900	-0.57177700	-0.71386700	-0.15893600	-0.64135700	-0.54296900	0.05249000	-0.76196300	0.25830100	0.12768600	-0.80029300	0.01513700	0.25537100	-0.63134800	-0.46923800	-0.44213900	-0.57836900	-0.18505900	-0.55859400
1037	10.36000000	-0.94555700	-0.06982400	0.12670900	-0.62573200	0.08496100	-0.70825200	-0.56518600	-0.72216800	-0.16967800	-0.63501000	-0.54907200	0.05737300	-0.75952100	0.25170900	0.12793000	-0.79980500	0.00195300	0.26440400	-0.64160200	-0.47558600	-0.43798800	-0.58252000	-0.18945300	-0.56079100
1038	10.37000000	-0.94531200	-0.07617200	0.13134800	-0.63232400	0.08911100	-0.70385700	-0.54834000	-0.72436500	-0.17187500	-0.63501000	-0.54492200	0.05273400	-0.76171900	0.25610400	0.13208000	-0.79736300	-0.01098600	0.26904300	-0.63940400	-0.47753900	-0.43994100	-0.57568400	-0.19384800	-0.56298800
1039	10.38000000	-0.94311500	-0.07617200	0.12915000	-0.63452100	0.09326200	-0.70629900	-0.53955100	-0.73486300	-0.17822300	-0.63281200	-0.54907200	0.04370100	-0.75976600	0.26049800	0.14086900	-0.79223600	-0.02612300	0.27148400	-0.64135700	-0.49194300	-0.43139600	-0.58447300	-0.20263700	-0.54956100
1040	10.39000000	-0.94531200	-0.07617200	0.12915000	-0.63671900	0.09326200	-0.68994100	-0.52905300	-0.73877000	-0.18920900	-0.63501000	-0.54687500	0.03442400	-0.75537100	0.26489300	0.14721700	-0.79199200	-0.03271500	0.28271500	-0.65161100	-0.49829100	-0.42919900	-0.59765600	-0.20727500	-0.52929700
1041	10.40000000	-0.94335900	-0.07421900	0.12475600	-0.63476600	0.09521500	-0.68994100	-0.51001000	-0.74096700	-0.19799800	-0.63501000	-0.54687500	0.02978500	-0.74194300	0.27148400	0.16259800	-0.79199200	-0.03686500	0.28491200	-0.65161100	-0.49829100	-0.42089800	-0.61059600	-0.21630900	-0.50463900
